name C:\Users\u0150099\Documents\master_thesis\3dpredictsim\Results\debug\Fal_s1_mtj_sc_cspx10_oy_TrackAnkleQSubtQ_MTPm_k1_d01_MTJm_nl_MG_exp_v2_table_d01_PF_Natali2010_ls146_FDB_ig21.mot
datacolumns 130
datarows 4
range 0.53914927 0.57149822
endheader
time	pelvis_tilt	pelvis_list	pelvis_rotation	pelvis_tx	pelvis_ty	pelvis_tz	hip_flexion_l	hip_adduction_l	hip_rotation_l	hip_flexion_r	hip_adduction_r	hip_rotation_r	knee_angle_l	knee_angle_r	ankle_angle_l	ankle_angle_r	subtalar_angle_l	subtalar_angle_r	mtj_angle_l	mtj_angle_r	mtp_angle_l	mtp_angle_r	lumbar_extension	lumbar_bending	lumbar_rotation	arm_flex_l	arm_add_l	arm_rot_l	arm_flex_r	arm_add_r	arm_rot_r	elbow_flex_l	elbow_flex_r	pro_sup_l	pro_sup_r	glut_med1_l/activation	glut_med2_l/activation	glut_med3_l/activation	glut_min1_l/activation	glut_min2_l/activation	glut_min3_l/activation	semimem_l/activation	semiten_l/activation	bifemlh_l/activation	bifemsh_l/activation	sar_l/activation	add_long_l/activation	add_brev_l/activation	add_mag1_l/activation	add_mag2_l/activation	add_mag3_l/activation	tfl_l/activation	pect_l/activation	grac_l/activation	glut_max1_l/activation	glut_max2_l/activation	glut_max3_l/activation	iliacus_l/activation	psoas_l/activation	quad_fem_l/activation	gem_l/activation	peri_l/activation	rect_fem_l/activation	vas_med_l/activation	vas_int_l/activation	vas_lat_l/activation	med_gas_l/activation	lat_gas_l/activation	soleus_l/activation	tib_post_l/activation	flex_dig_l/activation	flex_hal_l/activation	tib_ant_l/activation	per_brev_l/activation	per_long_l/activation	per_tert_l/activation	ext_dig_l/activation	ext_hal_l/activation	FDB_l/activation	ercspn_l/activation	intobl_l/activation	extobl_l/activation	glut_med1_r/activation	glut_med2_r/activation	glut_med3_r/activation	glut_min1_r/activation	glut_min2_r/activation	glut_min3_r/activation	semimem_r/activation	semiten_r/activation	bifemlh_r/activation	bifemsh_r/activation	sar_r/activation	add_long_r/activation	add_brev_r/activation	add_mag1_r/activation	add_mag2_r/activation	add_mag3_r/activation	tfl_r/activation	pect_r/activation	grac_r/activation	glut_max1_r/activation	glut_max2_r/activation	glut_max3_r/activation	iliacus_r/activation	psoas_r/activation	quad_fem_r/activation	gem_r/activation	peri_r/activation	rect_fem_r/activation	vas_med_r/activation	vas_int_r/activation	vas_lat_r/activation	med_gas_r/activation	lat_gas_r/activation	soleus_r/activation	tib_post_r/activation	flex_dig_r/activation	flex_hal_r/activation	tib_ant_r/activation	per_brev_r/activation	per_long_r/activation	per_tert_r/activation	ext_dig_r/activation	ext_hal_r/activation	FDB_r/activation	ercspn_r/activation	intobl_r/activation	extobl_r/activation	
          0.53914927	         -2.92085812	          0.94599139	         -3.77043376	          0.71706853	          0.91292188	          0.00464315	         26.98781766	          2.21127668	         -2.58495043	        -14.69443624	          2.43710915	          7.69999685	         -7.54946790	        -14.11213040	          2.32254421	          3.55993017	         -0.80905892	          2.37881308	         -1.94573531	         -2.00068050	          9.09727728	         23.63949900	         -3.08251398	         -0.03561749	          1.65432744	         -5.97075254	        -13.46765746	          5.51761416	          3.47962547	        -14.27492589	         19.37436622	         26.11071258	         36.23282007	         86.51662706	         86.51662706	          0.05000008	          0.05898556	          0.05000037	          0.05898538	          0.05532981	          0.05000062	          0.30487143	          0.08209240	          0.29105440	          0.08209221	          0.05000007	          0.09749028	          0.10069999	          0.12053791	          0.09151840	          0.10234591	          0.05000015	          0.05000057	          0.13301640	          0.05898556	          0.06760089	          0.08308685	          0.05000005	          0.05000008	          0.09119390	          0.05000066	          0.05000026	          0.05000002	          0.05000021	          0.05000019	          0.05000017	          0.06375000	          0.05846257	          0.05278871	          0.12041442	          0.06471811	          0.05178147	          0.34517978	          0.20568760	          0.16516648	          0.13314509	          0.54174688	          0.05000001	          0.27167356	          0.05000000	          0.12012698	          0.14540172	          0.30440620	          0.08209234	          0.05898583	          0.49473304	          0.23643875	          0.09684573	          0.05000042	          0.05000004	          0.05000004	          0.05000009	          0.10754327	          0.05000002	          0.05000003	          0.05000007	          0.05000024	          0.05000015	          0.64111254	          0.05000013	          0.05000010	          0.05000775	          0.05000109	          0.05000033	          0.43367160	          0.73270342	          0.05000005	          0.05000038	          0.05000018	          0.45647645	          0.15954481	          0.17307664	          0.13772176	          0.30964432	          0.49903467	          0.24224736	          0.72688312	          0.43623227	          0.69415255	          0.05000000	          0.05000000	          0.53931315	          0.05000001	          0.05000000	          0.11425051	          0.84750674	          0.05000000	          0.05000004	          0.05000002	
          0.54993225	         -2.92667433	          1.11282731	         -4.02883280	          0.73407980	          0.91180884	          0.00433849	         26.66261679	          2.58710859	         -2.50048010	        -15.10441220	          2.06718835	          7.63883004	         -7.36785542	        -14.96447259	          2.07960886	          2.67234031	         -1.07470512	          2.84395533	         -1.61676491	         -3.24517630	          8.08739773	         26.77990644	         -2.90261120	         -0.30743608	          1.77385960	         -6.67869106	        -13.45048903	          5.07281220	          3.09910153	        -14.22156472	         19.27686670	         25.55255016	         37.48191059	         86.51662706	         86.51662706	          0.15935010	          0.05000002	          0.05067191	          0.05000002	          0.05000003	          0.05000014	          0.29007918	          0.06958657	          0.27210156	          0.06958654	          0.05898590	          0.11820079	          0.11288397	          0.11756216	          0.07757681	          0.13062254	          0.05000013	          0.05898635	          0.11275311	          0.05000041	          0.08351602	          0.10808255	          0.05000029	          0.05000086	          0.24998394	          0.05823971	          0.05000070	          0.05000000	          0.05000000	          0.05000000	          0.05000000	          0.05898581	          0.05898581	          0.05898580	          0.15180325	          0.05485906	          0.05000018	          0.35960132	          0.21177944	          0.19668978	          0.18066854	          0.54847661	          0.05236486	          0.29285868	          0.05000000	          0.10325226	          0.13351715	          0.31347990	          0.06958651	          0.05000002	          0.41936757	          0.20042000	          0.08209239	          0.05000033	          0.05000004	          0.05000003	          0.05000003	          0.09116030	          0.05000005	          0.05000004	          0.05000008	          0.05000027	          0.05000023	          0.57638579	          0.05000019	          0.05000006	          0.05000036	          0.05000022	          0.05000017	          0.36760668	          0.77798340	          0.05000001	          0.05000005	          0.05000000	          0.40135496	          0.16861297	          0.17318302	          0.14189428	          0.26247353	          0.44311700	          0.20534372	          0.67115633	          0.43577165	          0.67187577	          0.05000000	          0.05000006	          0.50530362	          0.05000001	          0.05000000	          0.09684575	          0.71839871	          0.05000000	          0.05000000	          0.06647194	
          0.56071524	         -2.92956213	          1.28642994	         -4.27110135	          0.75138863	          0.91072554	          0.00400243	         26.36256122	          2.96949727	         -2.38058788	        -15.44149382	          1.68374851	          7.55534686	         -7.87725379	        -15.90043550	          1.45174261	          1.60962382	         -1.39154354	          3.34244746	         -1.30363008	         -4.62067834	          7.06930893	         30.20599062	         -2.71114816	         -0.59226365	          1.88760383	         -7.38276246	        -13.45331965	          4.85701811	          2.65668841	        -14.16069859	         19.13294803	         24.93636644	         38.69976977	         86.51662706	         86.51662706	          0.13507506	          0.05898205	          0.05000002	          0.05898581	          0.05898577	          0.05000019	          0.24588892	          0.05898585	          0.23064998	          0.05898582	          0.05000023	          0.10019483	          0.09568742	          0.22381000	          0.19847060	          0.16792741	          0.05000014	          0.05000075	          0.09557647	          0.05000089	          0.07843701	          0.17544486	          0.05774880	          0.06564361	          0.49711383	          0.11408890	          0.05000006	          0.08209235	          0.06958655	          0.06958655	          0.06958654	          0.05000000	          0.05000000	          0.05000000	          0.12867775	          0.05000002	          0.05460042	          0.37875076	          0.35866830	          0.17410530	          0.24941909	          0.59383288	          0.06083098	          0.31084090	          0.05000000	          0.08752295	          0.11317733	          0.26572482	          0.05898580	          0.05000000	          0.35548171	          0.16988830	          0.06958655	          0.05000088	          0.05000006	          0.05000004	          0.05000043	          0.07727309	          0.12407819	          0.05000066	          0.05000011	          0.05000030	          0.05000020	          0.58760803	          0.07736251	          0.05000012	          0.05000015	          0.05000008	          0.05000008	          0.31160598	          0.68449059	          0.05000000	          0.05000006	          0.05000009	          0.39272522	          0.17111613	          0.18758245	          0.18758179	          0.22248867	          0.37561316	          0.17406193	          0.58903561	          0.36941715	          0.56958721	          0.05000000	          0.05000000	          0.42832637	          0.05000001	          0.05000000	          0.08209240	          0.60895881	          0.05000000	          0.06958654	          0.08104038	
          0.57149822	         -2.93017651	          1.47684703	         -4.49805524	          0.76895100	          0.90965580	          0.00364675	         26.05742443	          3.32326279	         -2.21623232	        -15.71250801	          1.27987153	          7.43818550	         -9.02781310	        -16.88344398	          0.61063333	          0.30801313	         -1.77973509	          3.83377766	         -1.11450693	         -6.08462564	          6.04302112	         33.88392213	         -2.51070039	         -0.89643003	          1.99248641	         -8.07758927	        -13.47742462	          4.85263147	          2.15913878	        -14.09975826	         18.97304768	         24.26453578	         39.89958531	         86.51662706	         86.51662706	          0.35669147	          0.05000000	          0.23714388	          0.05000002	          0.05000001	          0.05000002	          0.21114530	          0.05000002	          0.20564311	          0.05000000	          0.06958616	          0.08493150	          0.21060501	          0.18971515	          0.16823592	          0.22210485	          0.05000009	          0.06958776	          0.08101650	          0.05000001	          0.20439090	          0.24084003	          0.06759810	          0.05898591	          0.42138419	          0.09670878	          0.09683776	          0.06958651	          0.05898585	          0.05898585	          0.05898584	          0.06958653	          0.06958656	          0.06958653	          0.10907516	          0.07485628	          0.05898583	          0.54351893	          0.35688532	          0.14758233	          0.53612907	          0.60092139	          0.05156407	          0.30948079	          0.05000000	          0.07418982	          0.09593605	          0.25816547	          0.05000003	          0.05000002	          0.30132812	          0.14400775	          0.05898584	          0.05000019	          0.05000004	          0.05000008	          0.05000000	          0.06550144	          0.20477342	          0.10614782	          0.05898584	          0.05898587	          0.05898626	          0.59664795	          0.06958676	          0.05000024	          0.05000124	          0.05000384	          0.05898575	          0.26413635	          0.65773352	          0.05898576	          0.05000016	          0.05000000	          0.33289799	          0.15900610	          0.15900650	          0.15900593	          0.18859504	          0.31839275	          0.14754557	          0.49930272	          0.31314065	          0.48281708	          0.05000000	          0.05000001	          0.36307572	          0.05000000	          0.05000000	          0.06958656	          0.51619084	          0.05000000	          0.05898582	          0.06869560	
